<mxfile host="app.diagrams.net" modified="2023-05-31T14:31:40.972Z" agent="Mozilla/5.0 (Windows NT 10.0; Win64; x64) AppleWebKit/537.36 (KHTML, like Gecko) Chrome/113.0.0.0 Safari/537.36" etag="LUwM-0HKyfHXD198uqaO" version="21.3.5" type="github">
  <diagram name="Page-1" id="CGbqjKaopWJT-BBq-ueE">
    <mxGraphModel dx="2607" dy="1285" grid="1" gridSize="10" guides="1" tooltips="1" connect="1" arrows="1" fold="1" page="1" pageScale="1" pageWidth="827" pageHeight="1169" math="0" shadow="0">
      <root>
        <mxCell id="0" />
        <mxCell id="1" parent="0" />
        <mxCell id="Ltk_r_5bmHG_-wPaFTfG-13" value="&lt;b style=&quot;border-color: var(--border-color); font-size: 14px;&quot;&gt;Automatisme&lt;/b&gt;" style="swimlane;fontStyle=0;childLayout=stackLayout;horizontal=1;startSize=40;horizontalStack=0;resizeParent=1;resizeParentMax=0;resizeLast=0;collapsible=1;marginBottom=0;whiteSpace=wrap;html=1;fontFamily=calibri;fontSize=14;" vertex="1" parent="1">
          <mxGeometry x="240" y="490" width="160" height="190" as="geometry">
            <mxRectangle x="250" y="510" width="120" height="30" as="alternateBounds" />
          </mxGeometry>
        </mxCell>
        <mxCell id="Ltk_r_5bmHG_-wPaFTfG-14" value="&lt;b style=&quot;border-color: var(--border-color); text-align: center; font-size: 14px;&quot;&gt;SCHEHRER&amp;nbsp;&lt;/b&gt;Matthieu" style="text;strokeColor=none;fillColor=none;align=left;verticalAlign=middle;spacingLeft=4;spacingRight=4;overflow=hidden;points=[[0,0.5],[1,0.5]];portConstraint=eastwest;rotatable=0;whiteSpace=wrap;html=1;fontFamily=calibri;fontSize=14;" vertex="1" parent="Ltk_r_5bmHG_-wPaFTfG-13">
          <mxGeometry y="40" width="160" height="30" as="geometry" />
        </mxCell>
        <mxCell id="Ltk_r_5bmHG_-wPaFTfG-15" value="&lt;b style=&quot;border-color: var(--border-color); text-align: center; font-size: 14px;&quot;&gt;BACH&amp;nbsp;&lt;/b&gt;Kevin" style="text;strokeColor=none;fillColor=none;align=left;verticalAlign=middle;spacingLeft=4;spacingRight=4;overflow=hidden;points=[[0,0.5],[1,0.5]];portConstraint=eastwest;rotatable=0;whiteSpace=wrap;html=1;fontFamily=calibri;fontSize=14;" vertex="1" parent="Ltk_r_5bmHG_-wPaFTfG-13">
          <mxGeometry y="70" width="160" height="30" as="geometry" />
        </mxCell>
        <mxCell id="Ltk_r_5bmHG_-wPaFTfG-16" value="&lt;b style=&quot;border-color: var(--border-color); text-align: center; font-size: 14px;&quot;&gt;REUTENAUER&amp;nbsp;&lt;/b&gt;Olivier" style="text;strokeColor=none;fillColor=none;align=left;verticalAlign=middle;spacingLeft=4;spacingRight=4;overflow=hidden;points=[[0,0.5],[1,0.5]];portConstraint=eastwest;rotatable=0;whiteSpace=wrap;html=1;fontFamily=calibri;fontSize=14;perimeterSpacing=0;" vertex="1" parent="Ltk_r_5bmHG_-wPaFTfG-13">
          <mxGeometry y="100" width="160" height="30" as="geometry" />
        </mxCell>
        <mxCell id="Ltk_r_5bmHG_-wPaFTfG-29" value="&lt;b style=&quot;border-color: var(--border-color); text-align: center; font-size: 14px;&quot;&gt;COLOMBO&amp;nbsp;&lt;/b&gt;Arthur" style="text;strokeColor=none;fillColor=none;align=left;verticalAlign=middle;spacingLeft=4;spacingRight=4;overflow=hidden;points=[[0,0.5],[1,0.5]];portConstraint=eastwest;rotatable=0;whiteSpace=wrap;html=1;fontFamily=calibri;fontSize=14;" vertex="1" parent="Ltk_r_5bmHG_-wPaFTfG-13">
          <mxGeometry y="130" width="160" height="30" as="geometry" />
        </mxCell>
        <mxCell id="Ltk_r_5bmHG_-wPaFTfG-28" value="&lt;b style=&quot;border-color: var(--border-color); text-align: center; font-size: 14px;&quot;&gt;MULLER&amp;nbsp;&lt;/b&gt;Arnaud" style="text;strokeColor=none;fillColor=none;align=left;verticalAlign=middle;spacingLeft=4;spacingRight=4;overflow=hidden;points=[[0,0.5],[1,0.5]];portConstraint=eastwest;rotatable=0;whiteSpace=wrap;html=1;fontFamily=calibri;fontSize=14;" vertex="1" parent="Ltk_r_5bmHG_-wPaFTfG-13">
          <mxGeometry y="160" width="160" height="30" as="geometry" />
        </mxCell>
        <mxCell id="Ltk_r_5bmHG_-wPaFTfG-71" style="edgeStyle=orthogonalEdgeStyle;rounded=0;orthogonalLoop=1;jettySize=auto;html=1;exitX=0.5;exitY=1;exitDx=0;exitDy=0;entryX=0.5;entryY=0;entryDx=0;entryDy=0;endArrow=none;endFill=0;fontFamily=calibri;fontSize=14;" edge="1" parent="1" source="Ltk_r_5bmHG_-wPaFTfG-17" target="Ltk_r_5bmHG_-wPaFTfG-69">
          <mxGeometry relative="1" as="geometry" />
        </mxCell>
        <mxCell id="Ltk_r_5bmHG_-wPaFTfG-17" value="&lt;b style=&quot;border-color: var(--border-color); font-size: 14px;&quot;&gt;Informatique Industrielle&lt;/b&gt;" style="swimlane;fontStyle=0;childLayout=stackLayout;horizontal=1;startSize=40;horizontalStack=0;resizeParent=1;resizeParentMax=0;resizeLast=0;collapsible=1;marginBottom=0;whiteSpace=wrap;html=1;fontFamily=calibri;fontSize=14;" vertex="1" parent="1">
          <mxGeometry x="40" y="490" width="160" height="70" as="geometry">
            <mxRectangle x="250" y="510" width="120" height="30" as="alternateBounds" />
          </mxGeometry>
        </mxCell>
        <mxCell id="Ltk_r_5bmHG_-wPaFTfG-18" value="&lt;b style=&quot;border-color: var(--border-color); text-align: center; font-size: 14px;&quot;&gt;D&#39;ORSY&amp;nbsp;&lt;/b&gt;Vincent" style="text;strokeColor=none;fillColor=none;align=left;verticalAlign=middle;spacingLeft=4;spacingRight=4;overflow=hidden;points=[[0,0.5],[1,0.5]];portConstraint=eastwest;rotatable=0;whiteSpace=wrap;html=1;fontFamily=calibri;fontSize=14;" vertex="1" parent="Ltk_r_5bmHG_-wPaFTfG-17">
          <mxGeometry y="40" width="160" height="30" as="geometry" />
        </mxCell>
        <mxCell id="Ltk_r_5bmHG_-wPaFTfG-21" value="&lt;b style=&quot;border-color: var(--border-color); font-size: 14px;&quot;&gt;Administration&lt;/b&gt;" style="swimlane;fontStyle=0;childLayout=stackLayout;horizontal=1;startSize=40;horizontalStack=0;resizeParent=1;resizeParentMax=0;resizeLast=0;collapsible=1;marginBottom=0;whiteSpace=wrap;html=1;fontFamily=calibri;fontSize=14;" vertex="1" parent="1">
          <mxGeometry x="440" y="490" width="160" height="70" as="geometry">
            <mxRectangle x="250" y="510" width="120" height="30" as="alternateBounds" />
          </mxGeometry>
        </mxCell>
        <mxCell id="Ltk_r_5bmHG_-wPaFTfG-22" value="&lt;b style=&quot;border-color: var(--border-color); text-align: center; font-size: 14px;&quot;&gt;EHRHARDT&amp;nbsp;&lt;/b&gt;Anne" style="text;strokeColor=none;fillColor=none;align=left;verticalAlign=middle;spacingLeft=4;spacingRight=4;overflow=hidden;points=[[0,0.5],[1,0.5]];portConstraint=eastwest;rotatable=0;whiteSpace=wrap;html=1;fontFamily=calibri;fontSize=14;" vertex="1" parent="Ltk_r_5bmHG_-wPaFTfG-21">
          <mxGeometry y="40" width="160" height="30" as="geometry" />
        </mxCell>
        <mxCell id="Ltk_r_5bmHG_-wPaFTfG-68" style="edgeStyle=orthogonalEdgeStyle;rounded=0;orthogonalLoop=1;jettySize=auto;html=1;exitX=0.5;exitY=1;exitDx=0;exitDy=0;entryX=0.5;entryY=0;entryDx=0;entryDy=0;endArrow=none;endFill=0;fontFamily=calibri;fontSize=14;" edge="1" parent="1" source="Ltk_r_5bmHG_-wPaFTfG-25" target="Ltk_r_5bmHG_-wPaFTfG-13">
          <mxGeometry relative="1" as="geometry" />
        </mxCell>
        <mxCell id="Ltk_r_5bmHG_-wPaFTfG-25" value="&lt;b style=&quot;border-color: var(--border-color); font-size: 14px;&quot;&gt;Directeur&lt;/b&gt;" style="swimlane;fontStyle=0;childLayout=stackLayout;horizontal=1;startSize=40;horizontalStack=0;resizeParent=1;resizeParentMax=0;resizeLast=0;collapsible=1;marginBottom=0;whiteSpace=wrap;html=1;fontFamily=calibri;fontSize=14;" vertex="1" parent="1">
          <mxGeometry x="240" y="380" width="160" height="70" as="geometry">
            <mxRectangle x="250" y="510" width="120" height="30" as="alternateBounds" />
          </mxGeometry>
        </mxCell>
        <mxCell id="Ltk_r_5bmHG_-wPaFTfG-26" value="&lt;b style=&quot;border-color: var(--border-color); text-align: center; font-size: 14px;&quot;&gt;SCHNEIDER&amp;nbsp;&lt;/b&gt;Frédéric" style="text;strokeColor=none;fillColor=none;align=left;verticalAlign=middle;spacingLeft=4;spacingRight=4;overflow=hidden;points=[[0,0.5],[1,0.5]];portConstraint=eastwest;rotatable=0;whiteSpace=wrap;html=1;fontFamily=calibri;fontSize=14;" vertex="1" parent="Ltk_r_5bmHG_-wPaFTfG-25">
          <mxGeometry y="40" width="160" height="30" as="geometry" />
        </mxCell>
        <mxCell id="Ltk_r_5bmHG_-wPaFTfG-45" value="&lt;span style=&quot;font-size: 14px;&quot;&gt;Directeur&lt;/span&gt;" style="rounded=0;whiteSpace=wrap;html=1;glass=0;shadow=0;fillColor=#155B54;strokeColor=none;fontColor=#FFFFFF;fontFamily=calibri;fontSize=14;fontStyle=1" vertex="1" parent="1">
          <mxGeometry x="240" y="45" width="160" height="40" as="geometry" />
        </mxCell>
        <mxCell id="Ltk_r_5bmHG_-wPaFTfG-56" value="" style="edgeStyle=orthogonalEdgeStyle;rounded=0;orthogonalLoop=1;jettySize=auto;html=1;endArrow=none;endFill=0;fontFamily=calibri;fontSize=14;fontStyle=0" edge="1" parent="1" source="Ltk_r_5bmHG_-wPaFTfG-46" target="Ltk_r_5bmHG_-wPaFTfG-55">
          <mxGeometry relative="1" as="geometry" />
        </mxCell>
        <mxCell id="Ltk_r_5bmHG_-wPaFTfG-46" value="&lt;span style=&quot;font-size: 14px;&quot;&gt;Automatisme&lt;/span&gt;" style="rounded=0;whiteSpace=wrap;html=1;fillColor=#1d7e74;fontColor=#FFFFFF;strokeColor=none;fontFamily=calibri;fontSize=14;fontStyle=1" vertex="1" parent="1">
          <mxGeometry x="240" y="120" width="160" height="40" as="geometry" />
        </mxCell>
        <mxCell id="Ltk_r_5bmHG_-wPaFTfG-54" value="" style="edgeStyle=orthogonalEdgeStyle;rounded=0;orthogonalLoop=1;jettySize=auto;html=1;endArrow=none;endFill=0;fontFamily=calibri;fontSize=14;fontStyle=0" edge="1" parent="1" source="Ltk_r_5bmHG_-wPaFTfG-47" target="Ltk_r_5bmHG_-wPaFTfG-53">
          <mxGeometry relative="1" as="geometry" />
        </mxCell>
        <mxCell id="Ltk_r_5bmHG_-wPaFTfG-47" value="&lt;span style=&quot;border-color: var(--border-color); font-size: 14px;&quot;&gt;Informatique Industrielle&lt;/span&gt;" style="rounded=0;whiteSpace=wrap;html=1;fillColor=#1D7E74;fontColor=#FFFFFF;strokeColor=none;fontFamily=calibri;fontSize=14;fontStyle=1" vertex="1" parent="1">
          <mxGeometry x="40" y="120" width="160" height="40" as="geometry" />
        </mxCell>
        <mxCell id="Ltk_r_5bmHG_-wPaFTfG-48" value="&lt;span style=&quot;border-color: var(--border-color); font-size: 14px;&quot;&gt;Administration&lt;/span&gt;" style="rounded=0;whiteSpace=wrap;html=1;fillColor=#1D7E74;fontColor=#FFFFFF;strokeColor=none;fontFamily=calibri;fontSize=14;fontStyle=1" vertex="1" parent="1">
          <mxGeometry x="440" y="120" width="160" height="40" as="geometry" />
        </mxCell>
        <mxCell id="Ltk_r_5bmHG_-wPaFTfG-53" value="&lt;span style=&quot;border-color: var(--border-color); font-size: 14px;&quot;&gt;Ingénieurs&lt;/span&gt;" style="rounded=0;whiteSpace=wrap;html=1;fillColor=#249c90;strokeColor=none;fontColor=#FFFFFF;fontFamily=calibri;fontSize=14;fontStyle=0" vertex="1" parent="1">
          <mxGeometry x="40" y="180" width="160" height="40" as="geometry" />
        </mxCell>
        <mxCell id="Ltk_r_5bmHG_-wPaFTfG-55" value="&lt;span style=&quot;font-size: 14px;&quot;&gt;Ingénieurs&lt;/span&gt;" style="rounded=0;whiteSpace=wrap;html=1;fillColor=#249C90;strokeColor=none;fontColor=#FFFFFF;fontFamily=calibri;fontSize=14;fontStyle=0" vertex="1" parent="1">
          <mxGeometry x="240" y="180" width="160" height="40" as="geometry" />
        </mxCell>
        <mxCell id="Ltk_r_5bmHG_-wPaFTfG-57" value="&lt;span style=&quot;font-size: 14px;&quot;&gt;Techniciens&lt;/span&gt;" style="rounded=0;whiteSpace=wrap;html=1;fillColor=#249C90;strokeColor=none;fontColor=#FFFFFF;fontFamily=calibri;fontSize=14;fontStyle=0" vertex="1" parent="1">
          <mxGeometry x="240" y="220" width="160" height="40" as="geometry" />
        </mxCell>
        <mxCell id="Ltk_r_5bmHG_-wPaFTfG-58" value="&lt;span style=&quot;font-size: 14px;&quot;&gt;Apprentis&lt;/span&gt;" style="rounded=0;whiteSpace=wrap;html=1;fontColor=#FFFFFF;fillColor=#249C90;strokeColor=none;fontFamily=calibri;fontSize=14;fontStyle=0" vertex="1" parent="1">
          <mxGeometry x="40" y="220" width="160" height="40" as="geometry" />
        </mxCell>
        <mxCell id="Ltk_r_5bmHG_-wPaFTfG-59" value="&lt;span style=&quot;font-size: 14px;&quot;&gt;Apprentis&lt;/span&gt;" style="rounded=0;whiteSpace=wrap;html=1;fillColor=#249C90;strokeColor=none;fontColor=#FFFFFF;fontFamily=calibri;fontSize=14;fontStyle=0" vertex="1" parent="1">
          <mxGeometry x="240" y="260" width="160" height="40" as="geometry" />
        </mxCell>
        <mxCell id="Ltk_r_5bmHG_-wPaFTfG-60" value="" style="endArrow=none;html=1;rounded=0;exitX=0.5;exitY=0;exitDx=0;exitDy=0;entryX=0.5;entryY=0;entryDx=0;entryDy=0;fontFamily=calibri;fontSize=14;fontStyle=0" edge="1" parent="1" source="Ltk_r_5bmHG_-wPaFTfG-47" target="Ltk_r_5bmHG_-wPaFTfG-48">
          <mxGeometry width="50" height="50" relative="1" as="geometry">
            <mxPoint x="120" y="100" as="sourcePoint" />
            <mxPoint x="520" y="100" as="targetPoint" />
            <Array as="points">
              <mxPoint x="120" y="100" />
              <mxPoint x="520" y="100" />
            </Array>
          </mxGeometry>
        </mxCell>
        <mxCell id="Ltk_r_5bmHG_-wPaFTfG-65" value="" style="endArrow=none;html=1;rounded=0;entryX=0.5;entryY=1;entryDx=0;entryDy=0;exitX=0.5;exitY=0;exitDx=0;exitDy=0;fontFamily=calibri;fontSize=14;fontStyle=0" edge="1" parent="1" source="Ltk_r_5bmHG_-wPaFTfG-46" target="Ltk_r_5bmHG_-wPaFTfG-45">
          <mxGeometry width="50" height="50" relative="1" as="geometry">
            <mxPoint x="300" y="120" as="sourcePoint" />
            <mxPoint x="350" y="70" as="targetPoint" />
          </mxGeometry>
        </mxCell>
        <mxCell id="Ltk_r_5bmHG_-wPaFTfG-66" value="" style="endArrow=none;html=1;rounded=0;exitX=0.5;exitY=0;exitDx=0;exitDy=0;entryX=0.5;entryY=0;entryDx=0;entryDy=0;fontFamily=calibri;fontSize=14;" edge="1" parent="1">
          <mxGeometry width="50" height="50" relative="1" as="geometry">
            <mxPoint x="120" y="490" as="sourcePoint" />
            <mxPoint x="520" y="490" as="targetPoint" />
            <Array as="points">
              <mxPoint x="120" y="470" />
              <mxPoint x="520" y="470" />
            </Array>
          </mxGeometry>
        </mxCell>
        <mxCell id="Ltk_r_5bmHG_-wPaFTfG-69" value="" style="rounded=0;whiteSpace=wrap;html=1;fontFamily=calibri;fontSize=14;" vertex="1" parent="1">
          <mxGeometry x="40" y="580" width="160" height="30" as="geometry" />
        </mxCell>
        <mxCell id="Ltk_r_5bmHG_-wPaFTfG-72" value="&lt;div style=&quot;text-align: center; font-size: 14px;&quot;&gt;&lt;span style=&quot;background-color: initial; font-size: 14px;&quot;&gt;&lt;b style=&quot;font-size: 14px;&quot;&gt;KRATZ&amp;nbsp;&lt;/b&gt;Raphaël&lt;/span&gt;&lt;/div&gt;" style="text;strokeColor=none;fillColor=none;align=left;verticalAlign=middle;spacingLeft=4;spacingRight=4;overflow=hidden;points=[[0,0.5],[1,0.5]];portConstraint=eastwest;rotatable=0;whiteSpace=wrap;html=1;fontFamily=calibri;fontSize=14;" vertex="1" parent="1">
          <mxGeometry x="40" y="580" width="160" height="30" as="geometry" />
        </mxCell>
        <mxCell id="Ltk_r_5bmHG_-wPaFTfG-74" value="" style="rounded=0;whiteSpace=wrap;html=1;fontFamily=calibri;fontSize=14;" vertex="1" parent="1">
          <mxGeometry x="40" y="610" width="160" height="30" as="geometry" />
        </mxCell>
        <mxCell id="Ltk_r_5bmHG_-wPaFTfG-76" value="&lt;div style=&quot;text-align: center; font-size: 14px;&quot;&gt;&lt;span style=&quot;background-color: initial; font-size: 14px;&quot;&gt;&lt;font color=&quot;#249c90&quot;&gt;&lt;b style=&quot;font-size: 14px;&quot;&gt;ZURETTI &lt;/b&gt;Joris&lt;/font&gt;&lt;/span&gt;&lt;/div&gt;" style="text;strokeColor=none;fillColor=none;align=left;verticalAlign=middle;spacingLeft=4;spacingRight=4;overflow=hidden;points=[[0,0.5],[1,0.5]];portConstraint=eastwest;rotatable=0;whiteSpace=wrap;html=1;fontFamily=calibri;fontSize=14;" vertex="1" parent="1">
          <mxGeometry x="40" y="610" width="160" height="30" as="geometry" />
        </mxCell>
        <mxCell id="Ltk_r_5bmHG_-wPaFTfG-87" style="edgeStyle=orthogonalEdgeStyle;rounded=0;orthogonalLoop=1;jettySize=auto;html=1;exitX=0.5;exitY=1;exitDx=0;exitDy=0;entryX=0.5;entryY=0;entryDx=0;entryDy=0;" edge="1" parent="1" source="Ltk_r_5bmHG_-wPaFTfG-78" target="Ltk_r_5bmHG_-wPaFTfG-79">
          <mxGeometry relative="1" as="geometry" />
        </mxCell>
        <mxCell id="Ltk_r_5bmHG_-wPaFTfG-78" value="Etude de faisabilité" style="rounded=0;whiteSpace=wrap;html=1;fontStyle=1;fontColor=#249C90;" vertex="1" parent="1">
          <mxGeometry x="240" y="800" width="160" height="40" as="geometry" />
        </mxCell>
        <mxCell id="Ltk_r_5bmHG_-wPaFTfG-88" style="edgeStyle=orthogonalEdgeStyle;rounded=0;orthogonalLoop=1;jettySize=auto;html=1;exitX=0.5;exitY=1;exitDx=0;exitDy=0;entryX=0.5;entryY=0;entryDx=0;entryDy=0;" edge="1" parent="1" source="Ltk_r_5bmHG_-wPaFTfG-79" target="Ltk_r_5bmHG_-wPaFTfG-80">
          <mxGeometry relative="1" as="geometry" />
        </mxCell>
        <mxCell id="Ltk_r_5bmHG_-wPaFTfG-79" value="Analyse Fonctionnelle" style="rounded=0;whiteSpace=wrap;html=1;fontStyle=1;fontColor=#249C90;" vertex="1" parent="1">
          <mxGeometry x="240" y="880" width="160" height="40" as="geometry" />
        </mxCell>
        <mxCell id="Ltk_r_5bmHG_-wPaFTfG-89" style="edgeStyle=orthogonalEdgeStyle;rounded=0;orthogonalLoop=1;jettySize=auto;html=1;exitX=0.5;exitY=1;exitDx=0;exitDy=0;entryX=0.5;entryY=0;entryDx=0;entryDy=0;" edge="1" parent="1" source="Ltk_r_5bmHG_-wPaFTfG-80" target="Ltk_r_5bmHG_-wPaFTfG-81">
          <mxGeometry relative="1" as="geometry" />
        </mxCell>
        <mxCell id="Ltk_r_5bmHG_-wPaFTfG-80" value="Réalisation" style="rounded=0;whiteSpace=wrap;html=1;fontStyle=1;fontColor=#249C90;" vertex="1" parent="1">
          <mxGeometry x="240" y="960" width="160" height="40" as="geometry" />
        </mxCell>
        <mxCell id="Ltk_r_5bmHG_-wPaFTfG-81" value="Mise en service" style="rounded=0;whiteSpace=wrap;html=1;fontStyle=1;fontColor=#249C90;" vertex="1" parent="1">
          <mxGeometry x="240" y="1040" width="160" height="40" as="geometry" />
        </mxCell>
        <mxCell id="Ltk_r_5bmHG_-wPaFTfG-86" style="edgeStyle=orthogonalEdgeStyle;rounded=0;orthogonalLoop=1;jettySize=auto;html=1;exitX=0.5;exitY=1;exitDx=0;exitDy=0;entryX=0.5;entryY=0;entryDx=0;entryDy=0;" edge="1" parent="1" source="Ltk_r_5bmHG_-wPaFTfG-85" target="Ltk_r_5bmHG_-wPaFTfG-78">
          <mxGeometry relative="1" as="geometry" />
        </mxCell>
        <mxCell id="Ltk_r_5bmHG_-wPaFTfG-85" value="&lt;b&gt;&lt;font color=&quot;#ff3333&quot;&gt;Nouveau projet&lt;/font&gt;&lt;/b&gt;" style="rounded=1;whiteSpace=wrap;html=1;fillColor=none;strokeColor=#FF3333;" vertex="1" parent="1">
          <mxGeometry x="240" y="720" width="160" height="40" as="geometry" />
        </mxCell>
      </root>
    </mxGraphModel>
  </diagram>
</mxfile>
